{
    "asset" : {
        "generator" : "Khronos glTF Blender I/O v1.4.40",
        "version" : "2.0"
    },
    "extensionsUsed" : [
        "KHR_materials_unlit"
    ],
    "scene" : 0,
    "scenes" : [
        {
            "name" : "Scene",
            "nodes" : [
                6
            ]
        }
    ],
    "nodes" : [
        {
            "mesh" : 0,
            "name" : "bed_ICE_Cream_deco_paint_0"
        },
        {
            "children" : [
                0
            ],
            "name" : "bed",
            "rotation" : [
                0,
                -0.7076616287231445,
                0,
                0.7065514922142029
            ],
            "translation" : [
                65.2366714477539,
                7.953502655029297,
                -36.98705291748047
            ]
        },
        {
            "children" : [
                1
            ],
            "name" : "RootNode"
        },
        {
            "children" : [
                2
            ],
            "name" : "Node_3"
        },
        {
            "children" : [
                3
            ],
            "name" : "64115b41caee4e36b5fca7397a20fc8d.fbx",
            "rotation" : [
                0.7071068286895752,
                0,
                0,
                0.7071068286895752
            ]
        },
        {
            "children" : [
                4
            ],
            "name" : "RootNode (model correction matrix)"
        },
        {
            "children" : [
                5
            ],
            "name" : "RootNode (gltf orientation matrix)",
            "rotation" : [
                -0.7071068286895752,
                0,
                0,
                0.7071068286895752
            ],
            "scale" : [
                0.019568847492337227,
                0.019568847492337227,
                0.019568847492337227
            ]
        }
    ],
    "materials" : [
        {
            "doubleSided" : true,
            "extensions" : {
                "KHR_materials_unlit" : {}
            },
            "name" : "ICE_Cream_deco_paint_0",
            "pbrMetallicRoughness" : {
                "baseColorTexture" : {
                    "index" : 0,
                    "texCoord" : 0
                },
                "metallicFactor" : 0,
                "roughnessFactor" : 0.9
            }
        },
        {
            "doubleSided" : true,
            "extensions" : {
                "KHR_materials_unlit" : {}
            },
            "name" : "Bed_sheet",
            "pbrMetallicRoughness" : {
                "baseColorTexture" : {
                    "index" : 1,
                    "texCoord" : 0
                },
                "metallicFactor" : 0,
                "roughnessFactor" : 0.9
            }
        },
        {
            "doubleSided" : true,
            "extensions" : {
                "KHR_materials_unlit" : {}
            },
            "name" : "Wood_0",
            "pbrMetallicRoughness" : {
                "baseColorTexture" : {
                    "index" : 2,
                    "texCoord" : 0
                },
                "metallicFactor" : 0,
                "roughnessFactor" : 0.9
            }
        },
        {
            "doubleSided" : true,
            "extensions" : {
                "KHR_materials_unlit" : {}
            },
            "name" : "pillow",
            "pbrMetallicRoughness" : {
                "baseColorTexture" : {
                    "index" : 3,
                    "texCoord" : 0
                },
                "metallicFactor" : 0,
                "roughnessFactor" : 0.9
            }
        }
    ],
    "meshes" : [
        {
            "name" : "bed_ICE_Cream_deco_paint_0",
            "primitives" : [
                {
                    "attributes" : {
                        "POSITION" : 0,
                        "NORMAL" : 1,
                        "TEXCOORD_0" : 2
                    },
                    "indices" : 3,
                    "material" : 0
                },
                {
                    "attributes" : {
                        "POSITION" : 4,
                        "NORMAL" : 5,
                        "TEXCOORD_0" : 6
                    },
                    "indices" : 7,
                    "material" : 1
                },
                {
                    "attributes" : {
                        "POSITION" : 8,
                        "NORMAL" : 9,
                        "TEXCOORD_0" : 10
                    },
                    "indices" : 11,
                    "material" : 2
                },
                {
                    "attributes" : {
                        "POSITION" : 12,
                        "NORMAL" : 13,
                        "TEXCOORD_0" : 14
                    },
                    "indices" : 15,
                    "material" : 3
                }
            ]
        }
    ],
    "textures" : [
        {
            "sampler" : 0,
            "source" : 0
        },
        {
            "sampler" : 0,
            "source" : 1
        },
        {
            "sampler" : 0,
            "source" : 2
        },
        {
            "sampler" : 0,
            "source" : 3
        }
    ],
    "images" : [
        {
            "mimeType" : "image/jpeg",
            "name" : "ICE_Cream_deco_paint_0_baseColor",
            "uri" : "../../textures/bedroom/ICE_Cream_deco_paint_0_baseColor.jpg"
        },
        {
            "mimeType" : "image/jpeg",
            "name" : "Bed_sheet_baseColor",
            "uri" : "../../textures/bedroom/Bed_sheet_baseColor.jpg"
        },
        {
            "mimeType" : "image/jpeg",
            "name" : "Wood_0_baseColor",
            "uri" : "../../textures/bedroom/Wood_0_baseColor.jpg"
        },
        {
            "mimeType" : "image/jpeg",
            "name" : "pillow_baseColor",
            "uri" : "../../textures/bedroom/pillow_baseColor.jpg"
        }
    ],
    "accessors" : [
        {
            "bufferView" : 0,
            "componentType" : 5126,
            "count" : 1313,
            "max" : [
                40.40226364135742,
                33.9361572265625,
                0.0020615458488464355
            ],
            "min" : [
                -35.66322326660156,
                -8.031002044677734,
                -2.0961623191833496
            ],
            "type" : "VEC3"
        },
        {
            "bufferView" : 1,
            "componentType" : 5126,
            "count" : 1313,
            "type" : "VEC3"
        },
        {
            "bufferView" : 2,
            "componentType" : 5126,
            "count" : 1313,
            "type" : "VEC2"
        },
        {
            "bufferView" : 3,
            "componentType" : 5123,
            "count" : 1428,
            "type" : "SCALAR"
        },
        {
            "bufferView" : 4,
            "componentType" : 5126,
            "count" : 408,
            "max" : [
                37.6102180480957,
                11.236987113952637,
                79.45916748046875
            ],
            "min" : [
                -33.717620849609375,
                4.616879463195801,
                0.4337310791015625
            ],
            "type" : "VEC3"
        },
        {
            "bufferView" : 5,
            "componentType" : 5126,
            "count" : 408,
            "type" : "VEC3"
        },
        {
            "bufferView" : 6,
            "componentType" : 5126,
            "count" : 408,
            "type" : "VEC2"
        },
        {
            "bufferView" : 7,
            "componentType" : 5123,
            "count" : 1950,
            "type" : "SCALAR"
        },
        {
            "bufferView" : 8,
            "componentType" : 5126,
            "count" : 5658,
            "max" : [
                40.39470672607422,
                29.91937255859375,
                81.04133605957031
            ],
            "min" : [
                -35.65829086303711,
                -8.030794143676758,
                -0.7599350810050964
            ],
            "type" : "VEC3"
        },
        {
            "bufferView" : 9,
            "componentType" : 5126,
            "count" : 5658,
            "type" : "VEC3"
        },
        {
            "bufferView" : 10,
            "componentType" : 5126,
            "count" : 5658,
            "type" : "VEC2"
        },
        {
            "bufferView" : 11,
            "componentType" : 5123,
            "count" : 5880,
            "type" : "SCALAR"
        },
        {
            "bufferView" : 12,
            "componentType" : 5126,
            "count" : 7340,
            "max" : [
                39.22809600830078,
                18.094112396240234,
                64.45953369140625
            ],
            "min" : [
                -34.680782318115234,
                5.992222785949707,
                0.8552284240722656
            ],
            "type" : "VEC3"
        },
        {
            "bufferView" : 13,
            "componentType" : 5126,
            "count" : 7340,
            "type" : "VEC3"
        },
        {
            "bufferView" : 14,
            "componentType" : 5126,
            "count" : 7340,
            "type" : "VEC2"
        },
        {
            "bufferView" : 15,
            "componentType" : 5123,
            "count" : 18780,
            "type" : "SCALAR"
        }
    ],
    "bufferViews" : [
        {
            "buffer" : 0,
            "byteLength" : 15756,
            "byteOffset" : 0
        },
        {
            "buffer" : 0,
            "byteLength" : 15756,
            "byteOffset" : 15756
        },
        {
            "buffer" : 0,
            "byteLength" : 10504,
            "byteOffset" : 31512
        },
        {
            "buffer" : 0,
            "byteLength" : 2856,
            "byteOffset" : 42016
        },
        {
            "buffer" : 0,
            "byteLength" : 4896,
            "byteOffset" : 44872
        },
        {
            "buffer" : 0,
            "byteLength" : 4896,
            "byteOffset" : 49768
        },
        {
            "buffer" : 0,
            "byteLength" : 3264,
            "byteOffset" : 54664
        },
        {
            "buffer" : 0,
            "byteLength" : 3900,
            "byteOffset" : 57928
        },
        {
            "buffer" : 0,
            "byteLength" : 67896,
            "byteOffset" : 61828
        },
        {
            "buffer" : 0,
            "byteLength" : 67896,
            "byteOffset" : 129724
        },
        {
            "buffer" : 0,
            "byteLength" : 45264,
            "byteOffset" : 197620
        },
        {
            "buffer" : 0,
            "byteLength" : 11760,
            "byteOffset" : 242884
        },
        {
            "buffer" : 0,
            "byteLength" : 88080,
            "byteOffset" : 254644
        },
        {
            "buffer" : 0,
            "byteLength" : 88080,
            "byteOffset" : 342724
        },
        {
            "buffer" : 0,
            "byteLength" : 58720,
            "byteOffset" : 430804
        },
        {
            "buffer" : 0,
            "byteLength" : 37560,
            "byteOffset" : 489524
        }
    ],
    "samplers" : [
        {
            "magFilter" : 9729,
            "minFilter" : 9986
        }
    ],
    "buffers" : [
        {
            "byteLength" : 527084,
            "uri" : "bed.bin"
        }
    ]
}
