{
    "asset" : {
        "generator" : "Khronos glTF Blender I/O v1.4.40",
        "version" : "2.0"
    },
    "extensionsUsed" : [
        "KHR_materials_unlit"
    ],
    "scene" : 0,
    "scenes" : [
        {
            "name" : "Scene",
            "nodes" : [
                6
            ]
        }
    ],
    "nodes" : [
        {
            "mesh" : 0,
            "name" : "Bedrest_Bed_sheet_0.001"
        },
        {
            "children" : [
                0
            ],
            "name" : "Bedrest",
            "rotation" : [
                0.49359601736068726,
                0.506322979927063,
                0.506322979927063,
                -0.49359601736068726
            ],
            "translation" : [
                20.31688690185547,
                17.74754524230957,
                -35.91004180908203
            ]
        },
        {
            "children" : [
                1
            ],
            "name" : "RootNode"
        },
        {
            "children" : [
                2
            ],
            "name" : "Node_3"
        },
        {
            "children" : [
                3
            ],
            "name" : "64115b41caee4e36b5fca7397a20fc8d.fbx",
            "rotation" : [
                0.7071068286895752,
                0,
                0,
                0.7071068286895752
            ]
        },
        {
            "children" : [
                4
            ],
            "name" : "RootNode (model correction matrix)"
        },
        {
            "children" : [
                5
            ],
            "name" : "RootNode (gltf orientation matrix)",
            "rotation" : [
                -0.7071068286895752,
                0,
                0,
                0.7071068286895752
            ],
            "scale" : [
                0.019568847492337227,
                0.019568847492337227,
                0.019568847492337227
            ]
        }
    ],
    "materials" : [
        {
            "doubleSided" : true,
            "extensions" : {
                "KHR_materials_unlit" : {}
            },
            "name" : "Bed_sheet",
            "pbrMetallicRoughness" : {
                "baseColorTexture" : {
                    "index" : 0,
                    "texCoord" : 0
                },
                "metallicFactor" : 0,
                "roughnessFactor" : 0.9
            }
        }
    ],
    "meshes" : [
        {
            "name" : "Bedrest_Bed_sheet_0.001",
            "primitives" : [
                {
                    "attributes" : {
                        "POSITION" : 0,
                        "NORMAL" : 1,
                        "TEXCOORD_0" : 2
                    },
                    "indices" : 3,
                    "material" : 0
                }
            ]
        }
    ],
    "textures" : [
        {
            "sampler" : 0,
            "source" : 0
        }
    ],
    "images" : [
        {
            "mimeType" : "image/jpeg",
            "name" : "Bed_sheet_baseColor",
            "uri" : "../../textures/bedroom/Bed_sheet_baseColor.jpg"
        }
    ],
    "accessors" : [
        {
            "bufferView" : 0,
            "componentType" : 5126,
            "count" : 1228,
            "max" : [
                38.29134750366211,
                44.85350036621094,
                2.4285099506378174
            ],
            "min" : [
                -36.086368560791016,
                -35.17518615722656,
                -5.235034942626953
            ],
            "type" : "VEC3"
        },
        {
            "bufferView" : 1,
            "componentType" : 5126,
            "count" : 1228,
            "type" : "VEC3"
        },
        {
            "bufferView" : 2,
            "componentType" : 5126,
            "count" : 1228,
            "type" : "VEC2"
        },
        {
            "bufferView" : 3,
            "componentType" : 5123,
            "count" : 6390,
            "type" : "SCALAR"
        }
    ],
    "bufferViews" : [
        {
            "buffer" : 0,
            "byteLength" : 14736,
            "byteOffset" : 0
        },
        {
            "buffer" : 0,
            "byteLength" : 14736,
            "byteOffset" : 14736
        },
        {
            "buffer" : 0,
            "byteLength" : 9824,
            "byteOffset" : 29472
        },
        {
            "buffer" : 0,
            "byteLength" : 12780,
            "byteOffset" : 39296
        }
    ],
    "samplers" : [
        {
            "magFilter" : 9729,
            "minFilter" : 9986
        }
    ],
    "buffers" : [
        {
            "byteLength" : 52076,
            "uri" : "mattress.bin"
        }
    ]
}
