{
    "asset" : {
        "generator" : "Khronos glTF Blender I/O v1.4.40",
        "version" : "2.0"
    },
    "extensionsUsed" : [
        "KHR_materials_unlit"
    ],
    "scene" : 0,
    "scenes" : [
        {
            "name" : "Scene",
            "nodes" : [
                6
            ]
        }
    ],
    "nodes" : [
        {
            "mesh" : 0,
            "name" : "LCD_WhiteGloss_0"
        },
        {
            "children" : [
                0
            ],
            "name" : "LCD",
            "rotation" : [
                -0.49937862157821655,
                0.5006206035614014,
                0.5006206035614014,
                0.49937862157821655
            ],
            "translation" : [
                -80.95945739746094,
                25.57658576965332,
                -32.35799026489258
            ]
        },
        {
            "children" : [
                1
            ],
            "name" : "RootNode"
        },
        {
            "children" : [
                2
            ],
            "name" : "Node_3"
        },
        {
            "children" : [
                3
            ],
            "name" : "64115b41caee4e36b5fca7397a20fc8d.fbx",
            "rotation" : [
                0.7071068286895752,
                0,
                0,
                0.7071068286895752
            ]
        },
        {
            "children" : [
                4
            ],
            "name" : "RootNode (model correction matrix)"
        },
        {
            "children" : [
                5
            ],
            "name" : "RootNode (gltf orientation matrix)",
            "rotation" : [
                -0.7071068286895752,
                0,
                0,
                0.7071068286895752
            ],
            "scale" : [
                0.019568847492337227,
                0.019568847492337227,
                0.019568847492337227
            ]
        }
    ],
    "materials" : [
        {
            "doubleSided" : true,
            "extensions" : {
                "KHR_materials_unlit" : {}
            },
            "name" : "WhiteGloss",
            "pbrMetallicRoughness" : {
                "baseColorTexture" : {
                    "index" : 0,
                    "texCoord" : 0
                },
                "metallicFactor" : 0,
                "roughnessFactor" : 0.9
            }
        }
    ],
    "meshes" : [
        {
            "name" : "LCD_WhiteGloss_0",
            "primitives" : [
                {
                    "attributes" : {
                        "POSITION" : 0,
                        "NORMAL" : 1,
                        "TEXCOORD_0" : 2
                    },
                    "indices" : 3,
                    "material" : 0
                }
            ]
        }
    ],
    "textures" : [
        {
            "sampler" : 0,
            "source" : 0
        }
    ],
    "images" : [
        {
            "mimeType" : "image/jpeg",
            "name" : "WhiteGloss_baseColor",
            "uri" : "../../textures/bedroom/WhiteGloss_baseColor.jpg"
        }
    ],
    "accessors" : [
        {
            "bufferView" : 0,
            "componentType" : 5126,
            "count" : 19060,
            "max" : [
                38.536460876464844,
                1.5073529481887817,
                43.19999694824219
            ],
            "min" : [
                -33.599998474121094,
                -10.485967636108398,
                -25.573822021484375
            ],
            "type" : "VEC3"
        },
        {
            "bufferView" : 1,
            "componentType" : 5126,
            "count" : 19060,
            "type" : "VEC3"
        },
        {
            "bufferView" : 2,
            "componentType" : 5126,
            "count" : 19060,
            "type" : "VEC2"
        },
        {
            "bufferView" : 3,
            "componentType" : 5123,
            "count" : 20460,
            "type" : "SCALAR"
        }
    ],
    "bufferViews" : [
        {
            "buffer" : 0,
            "byteLength" : 228720,
            "byteOffset" : 0
        },
        {
            "buffer" : 0,
            "byteLength" : 228720,
            "byteOffset" : 228720
        },
        {
            "buffer" : 0,
            "byteLength" : 152480,
            "byteOffset" : 457440
        },
        {
            "buffer" : 0,
            "byteLength" : 40920,
            "byteOffset" : 609920
        }
    ],
    "samplers" : [
        {
            "magFilter" : 9729,
            "minFilter" : 9986
        }
    ],
    "buffers" : [
        {
            "byteLength" : 650840,
            "uri" : "tv_stand.bin"
        }
    ]
}
