# Blender v2.91.2 OBJ File: 'bedroom-mod.blend'
# www.blender.org
o window_Plane.001
v -3.042974 -0.041672 2.213565
v -3.042974 -0.041672 1.451827
v -3.042974 1.658545 2.213565
v -3.042974 1.658545 1.451827
v -1.618265 2.376285 -2.360104
v 1.317285 2.376285 -2.360104
v -1.618265 -0.024399 -2.360104
v 1.317285 -0.024399 -2.360104
vt 0.000000 0.000000
vt 1.000000 0.000000
vt 1.000000 1.000000
vt 0.000000 1.000000
vt 0.000000 0.000000
vt 1.000000 0.000000
vt 1.000000 1.000000
vt 0.000000 1.000000
vn 1.0000 0.0000 0.0000
vn 0.0000 0.0000 -1.0000
s off
f 1/1/1 2/2/1 4/3/1 3/4/1
f 5/5/2 6/6/2 8/7/2 7/8/2
